<svg aria-hidden="true" style="position: absolute; width: 0; height: 0; overflow: hidden;" version="1.1" xmlns="http://www.w3.org/2000/svg" xmlns:xlink="http://www.w3.org/1999/xlink">
<defs>
<symbol id="icon-ok-circled2" viewBox="0 0 32 32">
<path d="M0 16q0-6.624 4.704-11.328t11.296-4.672 11.328 4.672 4.672 11.328-4.672 11.328-11.328 4.672-11.296-4.672-4.704-11.328zM3.488 16q0 5.184 3.68 8.832t8.832 3.68 8.832-3.68 3.68-8.832-3.68-8.832-8.832-3.68-8.832 3.68-3.68 8.832zM6.88 17.632l3.008-2.944 2.976 3.008 9.248-9.312 3.008 2.976-9.312 9.248-2.944 3.008-2.976-3.008z"></path>
</symbol>
<symbol id="icon-trash" viewBox="0 0 28 32">
<path d="M0 8.992v-2.176q0.064-1.184 0.928-2.016t2.080-0.8h3.008v-0.992q0-1.248 0.864-2.144t2.112-0.864h10.016q1.248 0 2.112 0.864t0.896 2.144v0.992h2.976q1.184 0 2.080 0.8t0.928 2.016v2.176q0 0.832-0.608 1.408t-1.408 0.608v16.992q0 1.696-1.152 2.848t-2.816 1.152h-16q-1.696 0-2.848-1.152t-1.152-2.848v-16.992q-0.832 0-1.408-0.608t-0.608-1.408zM2.016 8.992h23.968v-1.984q0-0.448-0.256-0.736t-0.736-0.256h-21.984q-0.448 0-0.736 0.256t-0.256 0.736v1.984zM4 28q0 0.8 0.608 1.408t1.408 0.608h16q0.8 0 1.376-0.608t0.608-1.408v-16.992h-20v16.992zM6.016 27.008v-13.024q0-0.416 0.256-0.704t0.736-0.288h1.984q0.448 0 0.736 0.288t0.288 0.704v13.024q0 0.416-0.288 0.704t-0.736 0.288h-1.984q-0.448 0-0.736-0.288t-0.256-0.704zM7.008 27.008h1.984v-13.024h-1.984v13.024zM8 4h12v-0.992q0-0.448-0.288-0.736t-0.704-0.256h-10.016q-0.416 0-0.704 0.256t-0.288 0.736v0.992zM12 27.008v-13.024q0-0.416 0.288-0.704t0.704-0.288h2.016q0.416 0 0.704 0.288t0.288 0.704v13.024q0 0.416-0.288 0.704t-0.704 0.288h-2.016q-0.416 0-0.704-0.288t-0.288-0.704zM12.992 27.008h2.016v-13.024h-2.016v13.024zM18.016 27.008v-13.024q0-0.416 0.256-0.704t0.736-0.288h1.984q0.448 0 0.736 0.288t0.288 0.704v13.024q0 0.416-0.288 0.704t-0.736 0.288h-1.984q-0.448 0-0.736-0.288t-0.256-0.704zM19.008 27.008h1.984v-13.024h-1.984v13.024z"></path>
</symbol>
<symbol id="icon-ok-circle" viewBox="0 0 30 32">
<path d="M14.88 1.696q5.888 0 10.080 4.192t4.192 10.112-4.192 10.080-10.080 4.224-10.112-4.224-4.192-10.080 4.192-10.112 10.112-4.192zM12.64 22.592l11.136-11.136-2.528-2.528-8.608 8.576-4.032-4.032-2.528 2.496z"></path>
</symbol>
<symbol id="icon-plus" viewBox="0 0 19 32">
<path d="M17.6 14.4q0.96 0 0.96 1.6t-0.96 1.6h-6.72v6.72q0 0.96-1.6 0.96t-1.6-0.96v-6.72h-6.72q-0.96 0-0.96-1.6t0.96-1.6h6.72v-6.72q0-0.96 1.6-0.96t1.6 0.96v6.72h6.72z"></path>
</symbol>
</defs>
</svg>
