<!-- Generated by IcoMoon.io -->
<svg version="1.1" xmlns="http://www.w3.org/2000/svg" width="28" height="32" viewBox="0 0 28 32">
<title>trash</title>
<path d="M0 8.992v-2.176q0.064-1.184 0.928-2.016t2.080-0.8h3.008v-0.992q0-1.248 0.864-2.144t2.112-0.864h10.016q1.248 0 2.112 0.864t0.896 2.144v0.992h2.976q1.184 0 2.080 0.8t0.928 2.016v2.176q0 0.832-0.608 1.408t-1.408 0.608v16.992q0 1.696-1.152 2.848t-2.816 1.152h-16q-1.696 0-2.848-1.152t-1.152-2.848v-16.992q-0.832 0-1.408-0.608t-0.608-1.408zM2.016 8.992h23.968v-1.984q0-0.448-0.256-0.736t-0.736-0.256h-21.984q-0.448 0-0.736 0.256t-0.256 0.736v1.984zM4 28q0 0.8 0.608 1.408t1.408 0.608h16q0.8 0 1.376-0.608t0.608-1.408v-16.992h-20v16.992zM6.016 27.008v-13.024q0-0.416 0.256-0.704t0.736-0.288h1.984q0.448 0 0.736 0.288t0.288 0.704v13.024q0 0.416-0.288 0.704t-0.736 0.288h-1.984q-0.448 0-0.736-0.288t-0.256-0.704zM7.008 27.008h1.984v-13.024h-1.984v13.024zM8 4h12v-0.992q0-0.448-0.288-0.736t-0.704-0.256h-10.016q-0.416 0-0.704 0.256t-0.288 0.736v0.992zM12 27.008v-13.024q0-0.416 0.288-0.704t0.704-0.288h2.016q0.416 0 0.704 0.288t0.288 0.704v13.024q0 0.416-0.288 0.704t-0.704 0.288h-2.016q-0.416 0-0.704-0.288t-0.288-0.704zM12.992 27.008h2.016v-13.024h-2.016v13.024zM18.016 27.008v-13.024q0-0.416 0.256-0.704t0.736-0.288h1.984q0.448 0 0.736 0.288t0.288 0.704v13.024q0 0.416-0.288 0.704t-0.736 0.288h-1.984q-0.448 0-0.736-0.288t-0.256-0.704zM19.008 27.008h1.984v-13.024h-1.984v13.024z"></path>
</svg>
